<svg width="96" height="96" xmlns="http://www.w3.org/2000/svg" xmlns:xlink="http://www.w3.org/1999/xlink" xml:space="preserve" overflow="hidden"><defs><clipPath id="clip0"><rect x="869" y="19" width="96" height="96"/></clipPath></defs><g clip-path="url(#clip0)" transform="translate(-869 -19)"><path d="M919 49 915 49C912.8 49 911 47.2 911 45L911 37C911 34.8 912.8 33 915 33L919 33C921.2 33 923 34.8 923 37L923 45C923 47.2 921.2 49 919 49Z"/><path d="M949 69 925 69 925 65 949 65 949 69ZM949 81 925 81 925 77 949 77 949 81ZM949 93 925 93 925 89 949 89 949 93ZM917 93 885 93 885 85C885 83.8 885.6 82.6 886.6 81.8 888.8 80.2 891.6 78.8 894.4 78 896.6 77.4 898.8 77 901 77 903.4 77 905.6 77.4 907.6 78 910.4 78.8 913.2 80 915.4 81.8 916.4 82.6 917 83.8 917 85L917 93ZM901 59C905.4 59 909 62.6 909 67 909 71.4 905.4 75 901 75 896.6 75 893 71.4 893 67 893 62.6 896.6 59 901 59ZM953 45 927 45C927 49.4 923.4 53 919 53L915 53C910.6 53 907 49.4 907 45L881 45C878.8 45 877 46.8 877 49L877 97C877 99.2 878.8 101 881 101L953 101C955.2 101 957 99.2 957 97L957 49C957 46.8 955.2 45 953 45Z"/></g></svg>