<svg width="96" height="96" xmlns="http://www.w3.org/2000/svg" xmlns:xlink="http://www.w3.org/1999/xlink" xml:space="preserve" overflow="hidden"><defs><clipPath id="clip0"><rect x="34" y="40" width="96" height="96"/></clipPath></defs><g clip-path="url(#clip0)" transform="translate(-34 -40)"><path d="M98 70C98 78.8366 90.8366 86 82 86 73.1634 86 66 78.8366 66 70 66 61.1634 73.1634 54 82 54 90.8366 54 98 61.1634 98 70Z"/><path d="M114 122 114 106C114 103.6 112.8 101.2 110.8 99.6 106.4 96 100.8 93.6 95.2 92 91.2 90.8 86.8 90 82 90 77.6 90 73.2 90.8 68.8 92 63.2 93.6 57.6 96.4 53.2 99.6 51.2 101.2 50 103.6 50 106L50 122 114 122Z"/></g></svg>