<svg width="96" height="96" xmlns="http://www.w3.org/2000/svg" xmlns:xlink="http://www.w3.org/1999/xlink" xml:space="preserve" overflow="hidden"><defs><clipPath id="clip0"><rect x="430" y="417" width="96" height="96"/></clipPath></defs><g clip-path="url(#clip0)" transform="translate(-430 -417)"><path d="M497 432.5C497 436.918 493.418 440.5 489 440.5 484.582 440.5 481 436.918 481 432.5 481 428.082 484.582 424.5 489 424.5 493.418 424.5 497 428.082 497 432.5Z"/><path d="M453 471.5C443.6 471.5 436 479.1 436 488.5 436 497.9 443.6 505.5 453 505.5 462.4 505.5 470 497.9 470 488.5 470 479.1 462.4 471.5 453 471.5ZM453 501.5C445.8 501.5 440 495.7 440 488.5 440 481.3 445.8 475.5 453 475.5 460.2 475.5 466 481.3 466 488.5 466 495.7 460.2 501.5 453 501.5Z"/><path d="M503 471.5C493.6 471.5 486 479.1 486 488.5 486 497.9 493.6 505.5 503 505.5 512.4 505.5 520 497.9 520 488.5 520 479.1 512.4 471.5 503 471.5ZM503 501.5C495.8 501.5 490 495.7 490 488.5 490 481.3 495.8 475.5 503 475.5 510.2 475.5 516 481.3 516 488.5 516 495.7 510.2 501.5 503 501.5Z"/><path d="M485.7 456.8C486.5 457.6 487.5 458 488.5 458L500 458C502.2 458 504 456.2 504 454 504 451.8 502.2 450 500 450L490.2 450C490.2 450 478.8 438.5 478.6 438.4 476.1 436.2 472.3 436.5 470.1 439L456.5 454.5C454.3 457 454.6 460.8 457 463 457.6 463.5 458.2 463.9 458.9 464.1L458.9 464.1 473.9 470.1 473.9 488.4C473.9 490.6 475.7 492.4 477.9 492.4 480.1 492.4 481.9 490.6 481.9 488.4L481.9 467.4C481.9 465.8 480.9 464.3 479.5 463.7L468.4 459 477.5 448.6 485.7 456.8Z"/></g></svg>