<svg width="96" height="96" xmlns="http://www.w3.org/2000/svg" xmlns:xlink="http://www.w3.org/1999/xlink" xml:space="preserve" overflow="hidden"><defs><clipPath id="clip0"><rect x="253" y="22" width="96" height="96"/></clipPath></defs><g clip-path="url(#clip0)" transform="translate(-253 -22)"><path d="M270.4 39C268.511 39.011 266.989 40.5511 267 42.4399 267 42.4399 267 42.44 267 42.44L267 83.78 267 83.78C266.989 85.6688 268.511 87.2089 270.4 87.22 270.4 87.22 270.4 87.22 270.4 87.22L280.6 87.22 280.6 101 294.2 87.22 331.6 87.22C333.489 87.209 335.011 85.6689 335 83.7801 335 83.7801 335 83.78 335 83.78L335 42.44 335 42.44C335.011 40.5512 333.489 39.0111 331.6 39 331.6 39 331.6 39 331.6 39ZM312 63C312 60.2386 314.239 58 317 58 319.761 58 322 60.2386 322 63 322 65.7614 319.761 68 317 68 314.239 68 312 65.7614 312 63ZM296 63C296 60.2386 298.239 58 301 58 303.761 58 306 60.2386 306 63 306 65.7614 303.761 68 301 68 298.239 68 296 65.7614 296 63ZM280 63C280 60.2386 282.239 58 285 58 287.761 58 290 60.2386 290 63 290 65.7614 287.761 68 285 68 282.239 68 280 65.7614 280 63Z"/></g></svg>