<svg width="96" height="96" xmlns="http://www.w3.org/2000/svg" xmlns:xlink="http://www.w3.org/1999/xlink" xml:space="preserve" overflow="hidden"><defs><clipPath id="clip0"><rect x="577" y="296" width="96" height="96"/></clipPath></defs><g clip-path="url(#clip0)" transform="translate(-577 -296)"><path d="M667.6 332.3 662.4 330.4 662.4 319.5 667.6 317.3 632.4 304.3 589.6 319.3C585.5 321.3 585.4 326.8 585.4 331.3 585.4 332.8 585.6 334.3 585.9 335.7 582.5 337.9 582.4 343 582.4 347.3 582.4 350.8 583.2 354 585.4 356 584.9 357.7 585.2 359.8 585.2 362.3 585.2 366.8 586.4 370.9 590.4 372.3L618.2 383.8 667.4 363.4 662.2 361.5 662.2 350.5 667.4 348.3 659.4 345.3 659.4 335.7 667.6 332.3ZM590.8 326.3 618.6 337.2 658.5 321.1 658.5 329.7 618.6 346.3 590.8 335.3 590.8 326.3ZM658.3 360.8 618.4 377.3 590.5 366.3 590.5 358.5 615.4 368.7 658.4 351.7 658.3 360.8ZM655.5 345.8 615.6 362.3 587.8 351.3 587.8 342.3 616.4 353.7 655.6 337.3 655.6 345.8Z"/></g></svg>