<svg width="96" height="96" xmlns="http://www.w3.org/2000/svg" xmlns:xlink="http://www.w3.org/1999/xlink" xml:space="preserve" overflow="hidden"><defs><clipPath id="clip0"><rect x="160" y="40" width="96" height="96"/></clipPath></defs><g clip-path="url(#clip0)" transform="translate(-160 -40)"><path d="M250.6 76.3 245.4 74.4 245.4 63.5 250.6 61.3 215.4 48.3 172.6 63.3C168.5 65.3 168.4 70.8 168.4 75.3 168.4 76.8 168.6 78.3 168.9 79.7 165.5 81.9 165.4 87 165.4 91.3 165.4 94.8 166.2 98 168.4 100 167.9 101.7 168.2 103.8 168.2 106.3 168.2 110.8 169.4 114.9 173.4 116.3L201.2 127.8 250.4 107.4 245.2 105.5 245.2 94.5 250.4 92.3 242.4 89.3 242.4 79.7 250.6 76.3ZM173.8 70.3 201.6 81.2 241.5 65.1 241.5 73.7 201.6 90.3 173.8 79.3 173.8 70.3ZM241.3 104.8 201.4 121.3 173.5 110.3 173.5 102.5 198.4 112.7 241.4 95.7 241.3 104.8ZM238.5 89.8 198.6 106.3 170.8 95.3 170.8 86.3 199.4 97.7 238.6 81.3 238.6 89.8Z"/></g></svg>