<svg width="96" height="96" xmlns="http://www.w3.org/2000/svg" xmlns:xlink="http://www.w3.org/1999/xlink" xml:space="preserve" overflow="hidden"><defs><clipPath id="clip0"><rect x="368" y="22" width="96" height="96"/></clipPath></defs><g clip-path="url(#clip0)" transform="translate(-368 -22)"><path d="M382.625 85.669C381.939 84.4791 380.417 84.071 379.228 84.7575 378.038 85.444 377.63 86.9651 378.316 88.155L383.288 96.772C383.974 97.9627 385.496 98.3717 386.686 97.6855 387.877 96.9993 388.286 95.4777 387.6 94.287Z"/><path d="M419 90.724 407.482 94.038 404.748 91.055 419.748 86.746ZM443.2 77.881 437.648 68.269 430.185 55.344 424.634 45.732C424.161 44.9499 423.143 44.6993 422.361 45.1723 422.254 45.2371 422.155 45.3138 422.065 45.401L384.282 81.858 391.739 94.784 401.185 92.132 405.411 96.689C406.042 97.3716 406.994 97.6574 407.896 97.435L420.408 93.872C420.574 93.789 420.822 93.707 420.988 93.624 421.6 93.2695 422.024 92.6633 422.148 91.967L423.308 85.835 442.282 80.449C443.211 80.0808 443.666 79.0289 443.298 78.0995 443.268 78.0245 443.233 77.9514 443.194 77.881Z"/><path d="M442.165 54.5221 452.136 48.9138 454.097 52.4001 444.126 58.0084Z"/><path d="M443.846 65.3425 444.925 61.4906 455.941 64.5749 454.863 68.4268Z"/><path d="M435.684 51.0314 438.771 40.0156 442.622 41.0947 439.536 52.1105Z"/></g></svg>