<svg width="96" height="96" xmlns="http://www.w3.org/2000/svg" xmlns:xlink="http://www.w3.org/1999/xlink" xml:space="preserve" overflow="hidden"><defs><clipPath id="clip0"><rect x="821" y="312" width="96" height="96"/></clipPath></defs><g clip-path="url(#clip0)" transform="translate(-821 -312)"><path d="M850 338C851.7 338 853 336.7 853 335L853 329C853 327.3 851.7 326 850 326 848.3 326 847 327.3 847 329L847 335C847 336.7 848.3 338 850 338Z"/><path d="M841 356 897 356 897 388 841 388 841 356ZM835 394 903 394 903 350 835 350 835 394Z"/><path d="M888 338C889.7 338 891 336.7 891 335L891 329C891 327.3 889.7 326 888 326 886.3 326 885 327.3 885 329L885 335C885 336.7 886.3 338 888 338Z"/><path d="M895 332 895 335C895 338.9 891.9 342 888 342 884.1 342 881 338.9 881 335L881 332 857 332 857 335C857 338.9 853.9 342 850 342 846.1 342 843 338.9 843 335L843 332 835 332 835 346 903 346 903 332 895 332Z"/></g></svg>