<svg width="96" height="96" xmlns="http://www.w3.org/2000/svg" xmlns:xlink="http://www.w3.org/1999/xlink" xml:space="preserve" overflow="hidden"><defs><clipPath id="clip0"><rect x="836" y="546" width="96" height="96"/></clipPath></defs><g clip-path="url(#clip0)" transform="translate(-836 -546)"><path d="M884 560.328 892.1 584.643 892.556 586.011 918.656 586.011 899.689 602.511 898.715 603.358 899.086 604.595 906.446 629.133 885.137 614.375 884 613.587 882.861 614.375 861.553 629.129 868.913 604.591 869.284 603.354 868.31 602.507 849.343 586.007 875.443 586.007 875.899 584.639ZM874 584.011 844 584.011 867 604.011 858 634.025 884 616.02 910 634.025 901 604.016 924 584.016 894 584.016 884 554Z"/></g></svg>