<svg width="96" height="96" xmlns="http://www.w3.org/2000/svg" xmlns:xlink="http://www.w3.org/1999/xlink" xml:space="preserve" overflow="hidden"><defs><clipPath id="clip0"><rect x="443" y="325" width="96" height="96"/></clipPath></defs><g clip-path="url(#clip0)" transform="translate(-443 -325)"><path d="M471.9 362 522 362 522 357C522 354.8 520.2 353 518 353L488 353 477 345.7C476.3 345.3 475.6 345 474.8 345L456 345C453.8 345 452 346.8 452 349L452 398C452 398.2 464.9 366.7 464.9 366.7 466.1 363.9 468.8 362 471.9 362Z"/><path d="M530 370C530 367.9 528.5 366.2 526.4 366L471.9 366C470.4 366 469.1 366.9 468.5 368.2L455 401 516 401 529.6 371.8C529.9 371.2 530 370.6 530 370L530 370Z"/></g></svg>