<svg width="96" height="96" xmlns="http://www.w3.org/2000/svg" xmlns:xlink="http://www.w3.org/1999/xlink" xml:space="preserve" overflow="hidden"><defs><clipPath id="clip0"><rect x="965" y="234" width="96" height="96"/></clipPath></defs><g clip-path="url(#clip0)" transform="translate(-965 -234)"><path d="M989.54 273.64C990.024 274.312 989.871 275.25 989.198 275.734 989.003 275.874 988.778 275.965 988.54 276 987.565 276.155 986.628 276.494 985.78 277 982.192 279.154 981.021 283.803 983.16 287.4 983.417 287.831 983.715 288.237 984.05 288.61L983.05 289.68 983.05 289.68C982.88 289.82 982.73 289.96 982.57 290.11L981.97 290.73 981.97 290.73C979.07 294.063 979.421 299.116 982.755 302.017 982.802 302.058 982.851 302.099 982.9 302.14 980.768 302.719 979.509 304.916 980.087 307.048 980.565 308.809 982.175 310.024 984 310 984.11 310 984.21 310 984.32 310 985.73 307.32 987.32 303.41 988.89 299.36 995.34 283.08 1005.09 258.54 1025 255.81 1032.73 254.888 1040.5 257.258 1046.4 262.34L1046.64 262.55C1047.84 259.273 1046.16 255.642 1042.88 254.441 1041.3 253.863 1039.55 253.938 1038.03 254.65 1037.63 254.846 1037.15 254.846 1036.75 254.65 1036.34 254.455 1036.05 254.088 1035.94 253.65 1034.86 249.423 1030.56 246.872 1026.33 247.952 1024.97 248.301 1023.72 249.008 1022.72 250 1022.13 250.586 1021.17 250.581 1020.58 249.988 1020.52 249.927 1020.47 249.86 1020.42 249.79L1019.22 248C1018.27 247.009 1017.12 246.24 1015.84 245.75 1013.71 244.915 1011.35 244.915 1009.22 245.75 1007.24 246.494 1005.67 248.037 1004.88 250 1004.58 250.79 1004.42 251.625 1004.4 252.47 1004.38 253.298 1003.7 253.957 1002.87 253.941 1002.75 253.939 1002.63 253.922 1002.51 253.89 1001.8 253.687 1001.07 253.58 1000.33 253.57 998.996 253.537 997.701 254.016 996.71 254.91 995.312 256.259 994.643 258.195 994.91 260.12L995.15 261.83C995.206 262.224 995.102 262.624 994.86 262.94 994.621 263.263 994.259 263.473 993.86 263.52 990.324 264.032 987.872 267.314 988.384 270.85 988.505 271.687 988.789 272.492 989.22 273.22 989.319 273.365 989.426 273.506 989.54 273.64ZM1010.23 255.77 1014 252.52C1014.42 252.164 1015.05 252.217 1015.41 252.639 1015.41 252.639 1015.41 252.64 1015.41 252.64 1015.77 253.06 1015.72 253.691 1015.3 254.05 1015.3 254.05 1015.3 254.05 1015.3 254.05L1011.49 257.29C1011.07 257.649 1010.44 257.6 1010.08 257.18 1009.72 256.76 1009.77 256.129 1010.19 255.77ZM997.81 264.6 1002.71 263.6C1003.26 263.492 1003.8 263.853 1003.91 264.405 1004.01 264.957 1003.65 265.492 1003.1 265.6L998.19 266.6 998 266.6C997.448 266.652 996.958 266.247 996.905 265.695 996.852 265.143 997.258 264.652 997.81 264.6ZM994 272.5C994 271.948 994.448 271.5 995 271.5 995.552 271.5 996 271.948 996 272.5L996 277.5C996 278.052 995.552 278.5 995 278.5 994.448 278.5 994 278.052 994 277.5ZM992 282.5C992.492 282.25 993.094 282.446 993.344 282.939 993.346 282.943 993.348 282.946 993.35 282.95 993.596 283.444 993.394 284.044 992.9 284.29L988.43 286.53C988.29 286.598 988.136 286.632 987.98 286.63 987.428 286.627 986.983 286.176 986.986 285.624 986.988 285.251 987.198 284.91 987.53 284.74Z"/><path d="M1046.67 265.46 1045.08 263.83C1039.62 259.132 1032.44 256.953 1025.29 257.83 1006.52 260.37 997 284.26 990.75 300.06 987.38 308.56 985.15 314.17 982.37 315.25 982.128 315.336 981.876 315.39 981.62 315.41L981.37 315.41C981.102 315.406 980.836 315.362 980.58 315.28L980.13 315.18C978.617 314.721 977.403 313.587 976.84 312.11 974.89 307.47 974.48 295.9 979.13 284.19 978.864 280.224 980.841 276.444 984.25 274.4L984.42 274.31C984.84 273.71 985.26 273.12 985.71 272.54 985.055 270.319 985.237 267.936 986.22 265.84 971 281.63 969.18 304.24 973.16 313.68 974.198 316.248 976.346 318.206 979 319 979.933 319.27 980.899 319.405 981.87 319.4 983.321 319.388 984.759 319.124 986.12 318.62L986.12 318.62C987.774 318.165 989.403 317.625 991 317L1054 291.28C1054.95 290.979 1055.61 290.108 1055.64 289.11 1055.67 280.391 1052.47 271.969 1046.67 265.46Z"/></g></svg>