<svg width="96" height="96" xmlns="http://www.w3.org/2000/svg" xmlns:xlink="http://www.w3.org/1999/xlink" xml:space="preserve" overflow="hidden"><defs><clipPath id="clip0"><rect x="740" y="198" width="96" height="96"/></clipPath></defs><g clip-path="url(#clip0)" transform="translate(-740 -198)"><path d="M813 245C811.3 245 810 243.7 810 242 810 240.3 811.3 239 813 239 814.7 239 816 240.3 816 242 816 243.7 814.7 245 813 245ZM807 251C805.3 251 804 249.7 804 248 804 246.3 805.3 245 807 245 808.7 245 810 246.3 810 248 810 249.7 808.7 251 807 251ZM801 245C799.3 245 798 243.7 798 242 798 240.3 799.3 239 801 239 802.7 239 804 240.3 804 242 804 243.7 802.7 245 801 245ZM807 233C808.7 233 810 234.3 810 236 810 237.7 808.7 239 807 239 805.3 239 804 237.7 804 236 804 234.3 805.3 233 807 233ZM775 244 771 244 771 248C771 249.1 770.1 250 769 250 767.9 250 767 249.1 767 248L767 244 763 244C761.9 244 761 243.1 761 242 761 240.9 761.9 240 763 240L767 240 767 236C767 234.9 767.9 234 769 234 770.1 234 771 234.9 771 236L771 240 775 240C776.1 240 777 240.9 777 242 777 243.1 776.1 244 775 244ZM811 218C799.2 218 805.2 224 788 224 770.8 224 776.8 218 765 218 752.4 218 736.4 274 753 274 768.3 274 762.5 260 788 260 813.5 260 807.7 274 823 274 839.6 274 823.6 218 811 218Z"/></g></svg>