<svg width="96" height="96" xmlns="http://www.w3.org/2000/svg" xmlns:xlink="http://www.w3.org/1999/xlink" xml:space="preserve" overflow="hidden"><defs><clipPath id="clip0"><rect x="354" y="296" width="96" height="96"/></clipPath></defs><g clip-path="url(#clip0)" transform="translate(-354 -296)"><path d="M432.606 313 371.406 313C369.517 313.011 367.995 314.551 368.006 316.44 368.006 316.44 368.006 316.44 368.006 316.44L368.006 357.78C367.995 359.669 369.517 361.209 371.406 361.22 371.406 361.22 371.406 361.22 371.406 361.22L408.806 361.22 422.406 375 422.406 361.22 432.606 361.22C434.495 361.209 436.017 359.669 436.006 357.78 436.006 357.78 436.006 357.78 436.006 357.78L436.006 316.44C436.017 314.551 434.495 313.011 432.606 313 432.606 313 432.606 313 432.606 313ZM412.081 351 402.006 344.025 391.931 351 395.418 339.375 386.506 331.625 398.131 331.625 402.006 320 405.881 331.625 417.506 331.625 408.594 339.375Z"/></g></svg>