<svg width="96" height="96" xmlns="http://www.w3.org/2000/svg" xmlns:xlink="http://www.w3.org/1999/xlink" xml:space="preserve" overflow="hidden"><defs><clipPath id="clip0"><rect x="723" y="561" width="96" height="96"/></clipPath></defs><g clip-path="url(#clip0)" transform="translate(-723 -561)"><path d="M803 627C802.948 624.495 801.773 622.145 799.8 620.6 795.4 617 789.8 614.6 784.2 613 779.922 611.69 775.474 611.016 771 611 766.531 611.077 762.092 611.75 757.8 613 752.207 614.632 746.932 617.202 742.2 620.6 740.227 622.145 739.052 624.495 739 627L739 643 803 643Z"/><path d="M768 586.75C770.6 585.22 777 580.28 777 580.28L777 580.28C778.01 580.367 778.971 580.754 779.76 581.39 781.68 582.739 783.307 584.464 784.54 586.46 785.65 588.12 786.6 589.46 786.89 589.86L786.89 589.86 787 590 787 590C787.5 589 787.48 586.21 787.13 583.67 786.64 580.17 786.24 579.13 784 577.25 782.573 575.956 780.668 575.321 778.75 575.5 776.148 573.481 773.013 572.264 769.73 572 764.73 571.82 759.27 574.43 756.95 577.49 753.44 582.09 753.83 585.09 753.83 586.16 753.83 587.23 752.6 589.09 753.46 589.09 754.02 589.09 754.57 589.09 755.13 589.09L755.13 589.09C758.3 589 764.77 588.65 768 586.75Z"/><path d="M785.42 591.17C785.37 591.1 784.27 589.57 782.93 587.58 781.829 585.775 780.369 584.216 778.64 583 778.303 582.755 777.937 582.553 777.55 582.4 775.77 583.75 771.19 587.19 769.01 588.46 765.55 590.46 759.24 590.99 755.01 591.08 755.12 599.916 762.371 606.99 771.207 606.88 779.099 606.782 785.741 600.944 786.85 593.13Z"/></g></svg>