<svg width="96" height="96" xmlns="http://www.w3.org/2000/svg" xmlns:xlink="http://www.w3.org/1999/xlink" xml:space="preserve" overflow="hidden"><defs><clipPath id="clip0"><rect x="174" y="344" width="96" height="96"/></clipPath></defs><g clip-path="url(#clip0)" transform="translate(-174 -344)"><path d="M185.622 399.333 194.178 402.9C195.378 403.4 196.356 402.258 196.36 400.347L196.371 394.157C196.371 392.247 195.403 390.292 194.201 389.792L185.645 386.23C184.445 385.73 183.466 386.872 183.463 388.783L183.452 394.973C183.449 396.878 184.42 398.833 185.622 399.333Z"/><path d="M210.794 409.814 219.35 413.376C219.525 413.452 219.713 413.492 219.903 413.494 220.838 413.494 221.529 412.43 221.532 410.823L221.543 404.633C221.543 402.723 220.575 400.768 219.373 400.268L210.818 396.706C210.643 396.63 210.455 396.59 210.265 396.588 209.33 396.588 208.638 397.652 208.635 399.259L208.624 405.449C208.621 407.359 209.592 409.314 210.794 409.814ZM212.631 401.794 217.357 403.761C217.475 404.034 217.539 404.328 217.543 404.626L217.537 408.289 212.811 406.321C212.692 406.048 212.628 405.754 212.624 405.456Z"/><path d="M177.26 375.171C177.146 375.215 177.036 375.27 176.932 375.335 176.375 375.706 176.04 376.331 176.04 377L176 399.481C175.998 400.29 176.484 401.02 177.231 401.331L179.262 402.176 180.556 404.776C180.771 405.207 181.134 405.547 181.579 405.732L194.365 411.056C196.87 412.101 199.372 411.116 200.741 408.556L202.127 405.962C202.225 406.136 202.308 406.318 202.376 406.506L204.107 411.221C205.18 414.142 206.981 416.311 209.048 417.172L221.835 422.5C222.636 422.833 223.56 422.612 224.124 421.953L225.084 420.83 226.768 420.992 227 421 227.236 420.977C227.413 420.959 227.587 420.917 227.753 420.853L240.753 415.567C241.36 415.321 241.809 414.793 241.953 414.154L244.975 400.736 255.929 396.2C256.038 396.152 256.163 396.165 256.26 396.233 256.361 396.296 256.42 396.407 256.417 396.526L256.417 397.238C256.417 397.391 256.318 397.527 256.172 397.573 254.38 398.156 253.168 399.828 253.172 401.713L253.172 402.789C253.176 405.193 255.127 407.138 257.531 407.134 258.068 407.134 258.6 407.033 259.1 406.839L260.07 406.461C264.866 404.613 268.021 399.994 268 394.855L268 392.578C267.999 387.614 263.975 383.591 259.011 383.591 257.873 383.591 256.746 383.807 255.689 384.228L227.525 395.438 195.325 382.031 195.925 379.754 206.925 375.196C207.105 375.121 207.312 375.207 207.386 375.387 207.404 375.43 207.413 375.476 207.413 375.522L207.413 376.234C207.413 376.387 207.314 376.523 207.168 376.569 205.376 377.152 204.164 378.824 204.168 380.709L204.168 381.785C204.167 384.187 206.114 386.136 208.516 386.137 209.058 386.137 209.595 386.036 210.1 385.839L211.07 385.461C215.866 383.613 219.021 378.994 219 373.855L219 371.578C219 366.614 214.975 362.59 210.011 362.591 208.87 362.591 207.738 362.809 206.678 363.232ZM208.168 366.945C210.727 365.926 213.627 367.174 214.646 369.733 214.88 370.32 215 370.946 215 371.578L215 373.855C215.014 377.344 212.873 380.479 209.618 381.735L208.647 382.113C208.467 382.184 208.263 382.096 208.192 381.916 208.175 381.874 208.167 381.83 208.167 381.785L208.167 380.709C208.167 380.556 208.265 380.421 208.41 380.374 210.205 379.793 211.42 378.12 211.417 376.234L211.417 375.522C211.418 373.118 209.47 371.169 207.066 371.169 206.494 371.169 205.928 371.281 205.4 371.5L193.484 376.438C192.908 376.677 192.477 377.171 192.317 377.773L191.6 380.48 183.286 377.018ZM224.964 416.8 224.432 416.749C223.783 416.686 223.143 416.944 222.719 417.44L222.029 418.249 210.585 413.482C209.83 413.167 208.663 412.026 207.862 409.845L206.131 405.13C205.353 403.01 203.831 401.621 202.166 401.505 202.089 401.5 202.014 401.497 201.938 401.497 200.664 401.52 199.511 402.259 198.958 403.407L197.213 406.674C196.671 407.688 196.19 407.488 195.903 407.374L183.803 402.337 182.511 399.727C182.297 399.295 181.934 398.956 181.489 398.771L180 398.152 180.035 380 225 398.718ZM264 394.855C264.014 398.344 261.873 401.479 258.618 402.735L257.647 403.113C257.467 403.184 257.263 403.096 257.192 402.916 257.175 402.874 257.167 402.83 257.167 402.785L257.167 401.709C257.167 401.556 257.265 401.421 257.41 401.374 259.205 400.793 260.42 399.12 260.417 397.234L260.417 396.522C260.418 394.118 258.47 392.169 256.066 392.169 255.494 392.169 254.928 392.281 254.4 392.5L242.484 397.438C241.884 397.687 241.443 398.212 241.3 398.846L238.278 412.255 229 416.028 229 399.156 257.168 387.945C259.727 386.926 262.627 388.174 263.646 390.733 263.88 391.32 264 391.946 264 392.578Z"/></g></svg>