<svg width="96" height="96" xmlns="http://www.w3.org/2000/svg" xmlns:xlink="http://www.w3.org/1999/xlink" xml:space="preserve" overflow="hidden"><defs><clipPath id="clip0"><rect x="853" y="296" width="96" height="96"/></clipPath></defs><g clip-path="url(#clip0)" transform="translate(-853 -296)"><path d="M930 326C929.2 326 928.5 326.1 927.7 326.3 927.9 325.6 928 324.8 928 324 928 318.5 923.5 314 918 314 915.7 314 913.5 314.8 911.8 316.1 911 311.5 906.9 308 902 308 897.4 308 893.5 311.2 892.3 315.5 890.5 312.8 887.5 311 884 311 878.5 311 874 315.5 874 321 874 321.8 874.1 322.5 874.3 323.3 873.5 323.1 872.8 323 872 323 866.5 323 862 327.5 862 333 862 338.5 866.5 343 872 343 872 343 872 343 872.1 343 872.6 348.1 876.9 352 882 352 884.3 352 886.4 351.2 888.1 349.9 888.1 350.2 888 350.6 888 351 888 356.5 892.5 361 898 361 903.2 361 907.5 357 908 351.9 909.8 354.4 912.7 356 916 356 921.5 356 926 351.5 926 346 926 345.7 926 345.4 926 345.1 927.2 345.6 928.6 346 930 346 935.5 346 940 341.5 940 336 940 330.5 935.5 326 930 326Z"/><path d="M888 365C888 368.314 885.314 371 882 371 878.686 371 876 368.314 876 365 876 361.686 878.686 359 882 359 885.314 359 888 361.686 888 365Z"/><path d="M874.5 375.5C874.5 377.985 872.485 380 870 380 867.515 380 865.5 377.985 865.5 375.5 865.5 373.015 867.515 371 870 371 872.485 371 874.5 373.015 874.5 375.5Z"/></g></svg>