<svg width="96" height="96" xmlns="http://www.w3.org/2000/svg" xmlns:xlink="http://www.w3.org/1999/xlink" xml:space="preserve" overflow="hidden"><defs><clipPath id="clip0"><rect x="482" y="19" width="96" height="96"/></clipPath></defs><g clip-path="url(#clip0)" transform="translate(-482 -19)"><path d="M544.2 73.6C548.4 75.1 552.4 76.8 555.7 79.5 557.1 80.6 557.9 82.2 557.9 84L559.7 99.5C559.8 100.2 559.5 100.9 558.9 101.3L558.9 101.3C557.2 102.4 555.4 103.3 553.5 103.9L553.5 107.1 556.2 107.1C557.9 106.4 559.6 105.6 561.1 104.6L561.1 104.6C562.9 103.4 563.9 101.2 563.6 99L562 83.9C561.9 81 560.6 78.3 558.3 76.5 554.6 73.4 550.2 71.5 545.6 69.9L540.7 67.9C540.3 67.7 540.1 67.4 540.1 67L540.1 64.6C543.9 61.6 546.1 57 546.1 52.1L546.1 48.5C546.7 48.9 547.4 49 548.1 49.1L546.4 44.1C546.2 43.4 546 42.7 545.9 42 545.1 36.3 541.7 32.3 537 29.8 536.6 29.6 536.1 29.6 535.7 29.9L534.8 30.6 533.8 29.2C533.5 28.8 533.1 28.4 532.6 28.3 531.7 28.1 530.8 28 529.9 28 522 28 515.4 34.2 514 42.3L514 43 514 43 514 44.7C514 46.9 513.6 49 512.7 51L511 55C511 55 512.2 54.7 514.2 54.1 514.7 58.2 516.8 61.9 520 64.4L520 66.9C520 67.3 519.8 67.7 519.4 67.8L514.5 69.8C509.9 71.4 505.5 73.3 501.8 76.4 499.5 78.2 498.1 80.9 498 83.8L496.3 99C496 101.2 497 103.4 498.8 104.6 500.3 105.6 502 106.4 503.7 107.1L506.5 107.1 506.5 104C504.6 103.3 502.8 102.5 501.1 101.4 500.5 101 500.2 100.3 500.3 99.6L502 84.2 502 84C502 82.2 502.9 80.6 504.3 79.5 507.6 76.8 511.6 75.1 515.8 73.6L517.4 73.1C520.3 74.9 524.9 76 530 76 535.1 76 539.7 74.9 542.7 73.1L544.2 73.6ZM518 52.9C524.8 50.6 534.6 46.6 539 41 539.9 42.4 540.9 43.7 542 45L542 52C542 58.6 536.6 64 530 64 523.7 64 518.5 59.2 518 52.9ZM522 70.9C523.2 70 524 68.5 524 66.9L524 66.8C527.8 68.4 532.2 68.4 536 66.8L536 66.9C536 68.4 536.7 69.9 537.9 70.9 535.3 71.7 532.6 72.1 529.9 72 527.3 72 524.6 71.6 522 70.9Z"/><path d="M551.6 84.3C551.6 82.9 550.5 81.8 549.1 81.8L549.1 81.8 511 81.8C509.6 81.8 508.5 82.9 508.5 84.3L508.5 84.3 508.5 109.2 500.9 109.2 500.9 110.5C500.9 111.9 502 113 503.4 113L556.7 113C558.1 113 559.2 111.9 559.2 110.5L559.2 109.2 551.6 109.2 551.6 84.3ZM524.8 100.8 523.4 102.2 517.8 96.6 523.4 91 524.8 92.4 520.6 96.6 524.8 100.8ZM528.6 102.9 526.8 102.1 531.5 90.8 533.3 91.6 528.6 102.9ZM536.6 102.3 535.2 100.9 539.4 96.7 535.2 92.5 536.6 91.1 542.2 96.7 536.6 102.3Z"/></g></svg>