<svg width="96" height="96" xmlns="http://www.w3.org/2000/svg" xmlns:xlink="http://www.w3.org/1999/xlink" xml:space="preserve" overflow="hidden"><defs><clipPath id="clip0"><rect x="139" y="19" width="96" height="96"/></clipPath></defs><g clip-path="url(#clip0)" transform="translate(-139 -19)"><path d="M187 99C169.4 99 155 84.6 155 67 155 49.4 169.4 35 187 35 204.6 35 219 49.4 219 67 219 84.6 204.6 99 187 99ZM187 29C166 29 149 46 149 67 149 88 166 105 187 105 208 105 225 88 225 67 225 46 208 29 187 29Z"/><path d="M189 47 185 47 185 67C185 67.6 185.2 68.1 185.6 68.4L199.7 82.5 202.5 79.7 189 66.2 189 47Z"/><path d="M189 41C189 42.1046 188.105 43 187 43 185.895 43 185 42.1046 185 41 185 39.8954 185.895 39 187 39 188.105 39 189 39.8954 189 41Z"/><path d="M189 93C189 94.1046 188.105 95 187 95 185.895 95 185 94.1046 185 93 185 91.8954 185.895 91 187 91 188.105 91 189 91.8954 189 93Z"/><path d="M163 67C163 68.1046 162.105 69 161 69 159.895 69 159 68.1046 159 67 159 65.8954 159.895 65 161 65 162.105 65 163 65.8954 163 67Z"/><path d="M215 67C215 68.1046 214.105 69 213 69 211.895 69 211 68.1046 211 67 211 65.8954 211.895 65 213 65 214.105 65 215 65.8954 215 67Z"/></g></svg>