<svg width="96" height="96" xmlns="http://www.w3.org/2000/svg" xmlns:xlink="http://www.w3.org/1999/xlink" xml:space="preserve" overflow="hidden"><defs><clipPath id="clip0"><rect x="606" y="22" width="96" height="96"/></clipPath></defs><g clip-path="url(#clip0)" transform="translate(-606 -22)"><path d="M613.431 86 623.506 79.025 633.581 86 630.094 74.376 638.756 66.844 647.418 74.376 643.931 86 654.006 79.025 664.081 86 660.594 74.376 669.256 66.844 677.918 74.376 674.431 86 684.506 79.025 694.581 86 691.093 74.376 700.006 66.626 688.381 66.626 684.506 55 680.631 66.626 657.881 66.626 654.006 55 650.131 66.626 627.381 66.626 623.506 55 619.631 66.626 608.006 66.626 616.918 74.376ZM680.631 68.625 682.072 68.625 682.528 67.258 684.506 61.325 686.484 67.258 686.939 68.625 694.658 68.625 689.781 72.866 688.807 73.713 689.178 74.95 691.024 81.105 685.644 77.381 684.506 76.593 683.367 77.381 677.987 81.105 679.834 74.95 680.205 73.713 679.231 72.866 674.354 68.625Z"/></g></svg>