<svg width="96" height="96" xmlns="http://www.w3.org/2000/svg" xmlns:xlink="http://www.w3.org/1999/xlink" xml:space="preserve" overflow="hidden"><defs><clipPath id="clip0"><rect x="592" y="312" width="96" height="96"/></clipPath></defs><g clip-path="url(#clip0)" transform="translate(-592 -312)"><path d="M625 351C622.8 351 621 349.2 621 347 621 345.6 621.8 344.3 622.9 343.6 622.9 344.3 623 345.1 623 346 623 347.1 623.9 348 625 348 626.1 348 627 347.1 627 346 627 345.1 627 344.3 626.9 343.5 628.1 344.2 629 345.5 629 347 629 349.2 627.2 351 625 351ZM674.2 368.2 646.2 340.2C645.4 339.4 644.4 339 643.4 339L626.2 339C625.1 335.5 623 333.7 619.4 333 618.1 332.8 617 332.6 615.9 332.4 610.2 331.6 609 331.4 609 325 609 323.9 608.1 323 607 323 605.9 323 605 323.9 605 325 605 334.4 608.7 335.4 615.3 336.4 616.3 336.6 617.4 336.7 618.7 337 620 337.3 621.4 337.5 622.2 339.6 619.2 340.8 617.1 343.7 617.1 347.1L617.1 365.4C617.1 366.5 617.5 367.5 618.3 368.2L646.3 396.2C647 397 648 397.3 649 397.3 650 397.3 651 396.9 651.8 396.1L674.1 373.8C675.7 372.3 675.7 369.7 674.2 368.2Z"/></g></svg>