<svg width="96" height="96" xmlns="http://www.w3.org/2000/svg" xmlns:xlink="http://www.w3.org/1999/xlink" xml:space="preserve" overflow="hidden"><defs><clipPath id="clip0"><rect x="997" y="344" width="96" height="96"/></clipPath></defs><g clip-path="url(#clip0)" transform="translate(-997 -344)"><path d="M1081 372.908 1064.03 355.938 1049.89 370.08 1047.06 367.251 1010.29 404.021C1008.73 405.583 1008.73 408.116 1010.29 409.678 1010.29 409.678 1010.29 409.678 1010.29 409.678L1027.26 426.648C1028.82 428.21 1031.35 428.21 1032.92 426.648 1032.92 426.648 1032.92 426.648 1032.92 426.648L1069.69 389.879 1066.86 387.05ZM1064.03 361.594 1075.34 372.908 1064.03 384.222 1052.71 372.908Z"/><path d="M1058.37 370.079 1061.2 367.251 1064.03 370.079 1061.2 372.908Z"/><path d="M1064.03 375.737 1066.86 372.908 1069.69 375.737 1066.86 378.565Z"/></g></svg>