<svg width="96" height="96" xmlns="http://www.w3.org/2000/svg" xmlns:xlink="http://www.w3.org/1999/xlink" xml:space="preserve" overflow="hidden"><defs><clipPath id="clip0"><rect x="999" y="465" width="96" height="96"/></clipPath></defs><g clip-path="url(#clip0)" transform="translate(-999 -465)"><path d="M1007 531 1007 485 1087 485 1087 531 1007 531ZM1055 543 1039 543 1039 537 1055 537 1055 543ZM1093 537 1093 479 1001 479 1001 537 1033 537 1033 543 1015 543C1013.9 543 1013 543.9 1013 545L1013 547 1081 547 1081 545C1081 543.9 1080.1 543 1079 543L1061 543 1061 537 1093 537Z"/></g></svg>