<svg width="96" height="96" xmlns="http://www.w3.org/2000/svg" xmlns:xlink="http://www.w3.org/1999/xlink" xml:space="preserve" overflow="hidden"><defs><clipPath id="clip0"><rect x="216" y="188" width="96" height="96"/></clipPath></defs><g clip-path="url(#clip0)" transform="translate(-216 -188)"><path d="M296 222 296 201 289.3 207.7C282.6 201.7 273.7 198 264 198 243 198 226 215 226 236 226 257 243 274 264 274 274.5 274 284 269.7 290.9 262.9L282.4 254.4C277.7 259.1 271.2 262 264 262 249.7 262 238 250.3 238 236 238 221.7 249.7 210 264 210 270.4 210 276.3 212.3 280.8 216.2L275 222 296 222Z"/></g></svg>