<svg width="96" height="96" xmlns="http://www.w3.org/2000/svg" xmlns:xlink="http://www.w3.org/1999/xlink" xml:space="preserve" overflow="hidden"><defs><clipPath id="clip0"><rect x="140" y="36" width="96" height="96"/></clipPath></defs><g clip-path="url(#clip0)" transform="translate(-140 -36)"><path d="M167 68C167 69.1046 166.105 70 165 70 163.895 70 163 69.1046 163 68 163 66.8954 163.895 66 165 66 166.105 66 167 66.8954 167 68Z"/><path d="M167 76C167 77.1046 166.105 78 165 78 163.895 78 163 77.1046 163 76 163 74.8954 163.895 74 165 74 166.105 74 167 74.8954 167 76Z"/><path d="M163 72C163 73.1046 162.105 74 161 74 159.895 74 159 73.1046 159 72 159 70.8954 159.895 70 161 70 162.105 70 163 70.8954 163 72Z"/><path d="M171 72C171 73.1046 170.105 74 169 74 167.895 74 167 73.1046 167 72 167 70.8954 167.895 70 169 70 170.105 70 171 70.8954 171 72Z"/><path d="M195 64C195 65.1046 194.105 66 193 66 191.895 66 191 65.1046 191 64 191 62.8954 191.895 62 193 62 194.105 62 195 62.8954 195 64Z"/><path d="M195 72C195 73.1046 194.105 74 193 74 191.895 74 191 73.1046 191 72 191 70.8954 191.895 70 193 70 194.105 70 195 70.8954 195 72Z"/><path d="M191 68C191 69.1046 190.105 70 189 70 187.895 70 187 69.1046 187 68 187 66.8954 187.895 66 189 66 190.105 66 191 66.8954 191 68Z"/><path d="M199 68C199 69.1046 198.105 70 197 70 195.895 70 195 69.1046 195 68 195 66.8954 195.895 66 197 66 198.105 66 199 66.8954 199 68Z"/><path d="M222 81 216 87 208 87 208 109 216 109 222 115 228 115 228 81Z"/><path d="M193 77C188 77 184 73 184 68 184 63 188 59 193 59 198 59 202 63 202 68 202 73 198 77 193 77ZM196 109C194.9 109 194 108.1 194 107 194 105.9 194.9 105 196 105 197.1 105 198 105.9 198 107 198 108.1 197.1 109 196 109ZM177 81C178.3 79.2 179.3 77.2 179.7 74.9 181 77.4 183.1 79.5 185.5 81L177 81ZM165 81C160 81 156 77 156 72 156 67 160 63 165 63 170 63 174 67 174 72 174 77 170 81 165 81ZM200.4 81C204.9 78.4 208 73.6 208 68 208 59.7 201.3 53 193 53 185.7 53 179.7 58.2 178.3 65.1 175.8 60.3 170.8 57 165 57 156.7 57 150 63.7 150 72 150 76.9 152.4 81.2 156 84L156 87 154 87 152 85 148 85 148 95 152 95 154 93 156 93 156 111C156 113.2 157.8 115 160 115L200 115C202.2 115 204 113.2 204 111L204 85C204 82.9 202.4 81.2 200.4 81Z"/></g></svg>