<svg width="96" height="96" xmlns="http://www.w3.org/2000/svg" xmlns:xlink="http://www.w3.org/1999/xlink" xml:space="preserve" overflow="hidden"><defs><clipPath id="clip0"><rect x="729" y="19" width="96" height="96"/></clipPath></defs><g clip-path="url(#clip0)" transform="translate(-729 -19)"><path d="M759.5 57 817.1 46.8 814.3 31 735.6 45 738.2 59.7 738.4 99C738.4 101.2 740.2 103 742.4 103L814.4 103C816.6 103 818.4 101.2 818.4 99L818.4 57 759.5 57ZM804.4 36.8 811.1 35.6 811.3 36.8 805.8 44.6 798 46.1 804.4 36.8ZM788.2 39.7 796.1 38.3 789.6 47.6 781.7 49 788.2 39.7ZM771.9 42.6 779.8 41.2 773.3 50.5 765.4 51.9 771.9 42.6ZM755.7 45.5 763.6 44.1 757.1 53.4 749.2 54.8 755.7 45.5ZM747.3 47 741.5 55.3 740.2 48.2 747.3 47ZM802.4 82 754.4 82 754.4 70 802.4 70 802.4 82Z"/></g></svg>